<svg xmlns="http://www.w3.org/2000/svg" width="192" height="48" viewBox="0 0 192 48" fill="none">
<path d="M70.3939 6.11316V19.8922H68.1422V6.11316H70.3939Z" fill="black"/>
<path d="M81.1159 9.33221C81.7923 9.68741 82.3463 10.2401 82.7053 10.9177C83.085 11.6183 83.2753 12.4628 83.2761 13.4514V19.8948H81.051V13.7861C81.051 12.8082 80.8081 12.0579 80.3225 11.5351C79.8368 11.0124 79.1746 10.7515 78.3357 10.7524C77.496 10.7524 76.8297 11.0133 76.337 11.5351C75.8443 12.057 75.5962 12.8073 75.5926 13.7861V19.8922H73.341V8.96817H75.5926V10.2177C75.9716 9.75886 76.4544 9.39848 77.0006 9.16686C77.5748 8.91432 78.1952 8.78576 78.8218 8.78948C79.6191 8.77827 80.407 8.96465 81.1159 9.33221Z" fill="black"/>
<path d="M88.7451 10.8124V16.8585C88.7451 17.2678 88.8404 17.5626 89.0312 17.7399C89.2219 17.9173 89.5464 18.0066 90.006 18.0066H91.3848V19.8908H89.6126C88.6007 19.8908 87.8259 19.6526 87.2881 19.1761C86.7504 18.6996 86.4815 17.9266 86.4815 16.8571V10.8124H85.2007V8.96816H86.4815V6.25183H88.7451V8.96816H91.3848V10.8124H88.7451Z" fill="black"/>
<path d="M103.315 15.2729H95.0272C95.0926 16.145 95.414 16.8451 95.9915 17.3732C96.5726 17.9035 97.3346 18.1877 98.1186 18.1666C99.3266 18.1666 100.18 17.6577 100.679 16.6398H103.1C102.781 17.632 102.158 18.4964 101.319 19.1081C100.458 19.7499 99.3911 20.0704 98.1186 20.0695C97.1464 20.084 96.1874 19.8417 95.3372 19.3668C94.5215 18.9017 93.8526 18.2144 93.4074 17.3839C92.9271 16.4719 92.6868 15.4514 92.7093 14.4195C92.685 13.391 92.9158 12.3726 93.3809 11.4565C93.8129 10.6256 94.4767 9.94007 95.2908 9.48423C96.1572 9.00983 97.1313 8.77041 98.1173 8.78948C99.0726 8.77258 100.016 9.00553 100.855 9.46556C101.645 9.90375 102.295 10.5603 102.727 11.3578C103.184 12.2183 103.414 13.1825 103.396 14.1581C103.397 14.5313 103.37 14.904 103.315 15.2729ZM101.05 13.4487C101.037 12.6157 100.741 11.949 100.164 11.4485C99.5655 10.9378 98.8006 10.6684 98.0167 10.6924C97.2846 10.6773 96.5742 10.9433 96.0299 11.4365C95.4789 11.9325 95.1509 12.6033 95.0458 13.4487H101.05Z" fill="black"/>
<path d="M109.155 9.25619C109.75 8.93286 110.419 8.77196 111.095 8.78947V11.1284H110.524C109.641 11.1284 108.975 11.3533 108.525 11.8032C108.076 12.253 107.849 13.0327 107.846 14.1421V19.8922H105.594V8.96816H107.846V10.5537C108.16 10.0122 108.612 9.56445 109.155 9.25619Z" fill="black"/>
<path d="M120.931 9.33221C121.608 9.68686 122.162 10.2397 122.52 10.9177C122.902 11.6183 123.092 12.4628 123.092 13.4514V19.8948H120.867V13.7861C120.867 12.8082 120.624 12.0579 120.137 11.5351C119.651 11.0124 118.989 10.7515 118.151 10.7524C117.311 10.7524 116.645 11.0133 116.152 11.5351C115.659 12.057 115.411 12.8073 115.408 13.7861V19.8922H113.163V8.96817H115.408V10.2177C115.786 9.75886 116.269 9.39848 116.816 9.16686C117.39 8.91432 118.01 8.78576 118.637 8.78948C119.434 8.77827 120.222 8.96465 120.931 9.33221Z" fill="black"/>
<path d="M127.585 19.6001C126.951 19.3228 126.399 18.8861 125.981 18.332C125.593 17.8132 125.372 17.1864 125.351 16.5371H127.674C127.694 16.7671 127.764 16.9899 127.879 17.1902C127.993 17.3905 128.149 17.5634 128.336 17.6972C128.772 18.0189 129.303 18.1829 129.843 18.1626C130.472 18.1626 130.963 18.0413 131.31 17.7959C131.469 17.697 131.601 17.5585 131.692 17.3937C131.784 17.2289 131.832 17.0432 131.831 16.8545C131.836 16.6615 131.783 16.4716 131.68 16.3091C131.577 16.1466 131.427 16.0189 131.251 15.9424C130.658 15.6694 130.042 15.4502 129.41 15.2876C128.736 15.1091 128.072 14.8909 127.423 14.6342C126.911 14.4208 126.457 14.0876 126.099 13.6621C125.724 13.2256 125.536 12.6508 125.537 11.9379C125.533 11.3632 125.713 10.8023 126.049 10.3377C126.424 9.82875 126.932 9.43419 127.516 9.19753C128.212 8.90874 128.959 8.76712 129.711 8.78148C130.947 8.78148 131.942 9.0953 132.695 9.72293C133.448 10.3506 133.852 11.2067 133.906 12.2912H131.651C131.64 12.0652 131.582 11.8441 131.48 11.6424C131.378 11.4406 131.235 11.2628 131.061 11.1204C130.707 10.8311 130.227 10.6844 129.623 10.6844C129.019 10.6844 128.58 10.7977 128.265 11.0218C128.117 11.1181 127.997 11.2504 127.914 11.4064C127.831 11.5624 127.789 11.737 127.792 11.9139C127.789 12.0517 127.816 12.1884 127.87 12.3149C127.925 12.4414 128.005 12.5547 128.107 12.6473C128.329 12.853 128.591 13.0117 128.875 13.114C129.177 13.226 129.623 13.3678 130.214 13.5394C130.875 13.7085 131.523 13.9237 132.153 14.1835C132.656 14.4002 133.104 14.7289 133.463 15.1449C133.83 15.569 134.02 16.1308 134.034 16.8305C134.042 17.4259 133.863 18.0087 133.523 18.496C133.155 19.0064 132.654 19.4042 132.075 19.6455C131.38 19.9368 130.632 20.0785 129.879 20.0615C129.09 20.0762 128.308 19.9188 127.585 19.6001Z" fill="black"/>
<path d="M144.283 9.33221C144.94 9.69579 145.475 10.2476 145.82 10.9177C146.193 11.6183 146.38 12.4628 146.381 13.4514V19.8948H144.156V13.7861C144.156 12.8082 143.913 12.0579 143.428 11.5351C142.942 11.0124 142.28 10.7515 141.441 10.7524C140.601 10.7524 139.935 11.0133 139.442 11.5351C138.949 12.057 138.703 12.8073 138.704 13.7861V19.8922H136.453V5.22371H138.704V10.2363C139.094 9.76859 139.59 9.4026 140.151 9.16953C140.759 8.91292 141.412 8.78448 142.071 8.79215C142.842 8.78023 143.603 8.96609 144.283 9.33221Z" fill="black"/>
<path d="M149.353 7.10394C149.218 6.96967 149.112 6.80893 149.041 6.63164C148.97 6.45435 148.935 6.26427 148.94 6.07314C148.937 5.88219 148.972 5.69251 149.043 5.51542C149.114 5.33833 149.219 5.17746 149.354 5.04242C149.488 4.90738 149.647 4.80093 149.823 4.72944C149.999 4.65794 150.188 4.62286 150.377 4.6263C150.564 4.62298 150.75 4.65818 150.923 4.72973C151.096 4.80128 151.252 4.90766 151.383 5.04235C151.518 5.17666 151.624 5.33741 151.695 5.51469C151.766 5.69197 151.801 5.88202 151.796 6.07314C151.801 6.26427 151.766 6.45435 151.695 6.63164C151.624 6.80893 151.518 6.96967 151.383 7.10394C151.252 7.23905 151.096 7.34581 150.923 7.41761C150.75 7.4894 150.564 7.5247 150.377 7.52132C150.187 7.52608 149.998 7.49149 149.822 7.41969C149.646 7.34789 149.487 7.24041 149.353 7.10394ZM151.481 8.97083V19.8948H149.229V8.96816L151.481 8.97083Z" fill="black"/>
<path d="M158.234 9.30555C158.923 8.95391 159.687 8.77677 160.459 8.78949C161.372 8.77832 162.269 9.02268 163.052 9.49528C163.834 9.96788 164.47 10.6501 164.89 11.4658C165.349 12.3667 165.58 13.3683 165.56 14.3808C165.577 15.4021 165.347 16.4122 164.89 17.3239C164.475 18.1567 163.838 18.857 163.05 19.3468C162.272 19.8283 161.374 20.0789 160.461 20.0695C159.696 20.0842 158.939 19.9107 158.256 19.5641C157.65 19.2579 157.114 18.8294 156.681 18.3053V25.0861H154.429V8.96818H156.681V10.5684C157.1 10.0371 157.63 9.60581 158.234 9.30555ZM162.813 12.4273C162.529 11.905 162.106 11.4727 161.592 11.1791C161.096 10.8975 160.536 10.7504 159.967 10.7524C159.403 10.752 158.85 10.9025 158.363 11.1884C157.847 11.4895 157.424 11.929 157.142 12.4579C156.822 13.0605 156.662 13.7364 156.679 14.4195C156.663 15.1059 156.822 15.785 157.142 16.3918C157.343 16.7769 157.621 17.1168 157.957 17.3909C158.293 17.665 158.681 17.8675 159.097 17.9862C159.513 18.1049 159.949 18.1373 160.377 18.0815C160.806 18.0256 161.22 17.8826 161.592 17.6612C162.11 17.3499 162.533 16.9004 162.813 16.3624C163.131 15.7518 163.29 15.0701 163.275 14.3808C163.293 13.7003 163.133 13.027 162.813 12.4273Z" fill="black"/>
<path d="M70.876 39.1305C69.817 38.5402 68.9385 37.6696 68.3356 36.6129C67.7223 35.5015 67.4005 34.2511 67.4005 32.9798C67.4005 31.7084 67.7223 30.458 68.3356 29.3466C68.9412 28.2947 69.8193 27.4282 70.876 26.8397C71.9576 26.2472 73.1693 25.9369 74.4005 25.9369C75.6318 25.9369 76.8435 26.2472 77.9251 26.8397C78.9805 27.4267 79.856 28.2938 80.4562 29.3466C81.0636 30.4599 81.3821 31.7096 81.3821 32.9798C81.3821 34.2499 81.0636 35.4996 80.4562 36.6129C79.8586 37.6706 78.9828 38.5417 77.9251 39.1305C76.8435 39.7229 75.6318 40.0333 74.4005 40.0333C73.1693 40.0333 71.9576 39.7229 70.876 39.1305ZM76.8125 37.445C77.5265 37.024 78.1046 36.4044 78.4774 35.6608C78.8724 34.823 79.0774 33.9072 79.0774 32.9798C79.0774 32.0524 78.8724 31.1366 78.4774 30.2988C78.1039 29.5607 77.5255 28.9478 76.8125 28.5345C76.0681 28.1311 75.236 27.9199 74.3906 27.9199C73.5452 27.9199 72.7131 28.1311 71.9687 28.5345C71.2559 28.9477 70.6779 29.5606 70.3051 30.2988C69.9101 31.1366 69.7051 32.0524 69.7051 32.9798C69.7051 33.9072 69.9101 34.823 70.3051 35.6608C70.6775 36.4043 71.2551 37.0239 71.9687 37.445C72.7109 37.8551 73.5439 38.0702 74.3906 38.0702C75.2373 38.0702 76.0703 37.8551 76.8125 37.445Z" fill="black"/>
<path d="M91.3557 29.3347C92.0325 29.6893 92.5866 30.2421 92.9451 30.9202C93.3266 31.6207 93.5168 32.4653 93.516 33.4538V39.8973H91.2908V33.7885C91.2908 32.8106 91.0479 32.0603 90.5623 31.5376C90.0766 31.0149 89.4144 30.7539 88.5755 30.7548C87.7349 30.7548 87.0687 31.0157 86.5768 31.5376C86.085 32.0594 85.8364 32.8097 85.8311 33.7885V39.8946H83.5874V28.9706H85.8311V30.2201C86.2106 29.7619 86.6933 29.4016 87.2391 29.1693C87.8138 28.9169 88.4346 28.7883 89.0616 28.7919C89.8589 28.7807 90.6468 28.9671 91.3557 29.3347Z" fill="black"/>
<path d="M106.229 35.2754H97.9412C98.0074 36.1475 98.3293 36.8476 98.9067 37.3757C99.4859 37.904 100.245 38.1881 101.026 38.1691C102.234 38.1691 103.087 37.6601 103.586 36.6422H106.009C105.69 37.6346 105.065 38.499 104.226 39.1105C103.367 39.7515 102.3 40.072 101.026 40.072C100.054 40.0872 99.0944 39.8449 98.2445 39.3692C97.4282 38.9049 96.7592 38.2174 96.3147 37.3863C95.834 36.4745 95.5932 35.454 95.6153 34.422C95.5934 33.3927 95.827 32.3743 96.2948 31.4589C96.7264 30.6278 97.3904 29.9421 98.2048 29.4867C99.0706 29.0122 100.044 28.7727 101.03 28.7919C101.986 28.7749 102.93 29.0079 103.77 29.468C104.56 29.9066 105.209 30.5631 105.641 31.3602C106.098 32.2206 106.329 33.1848 106.311 34.1606C106.313 34.5338 106.285 34.9066 106.229 35.2754ZM103.964 33.4512C103.951 32.6182 103.655 31.9514 103.078 31.4509C102.479 30.9402 101.715 30.6709 100.931 30.6948C100.199 30.68 99.4883 30.946 98.9438 31.4389C98.3928 31.935 98.0648 32.6057 97.9597 33.4512H103.964Z" fill="black"/>
<path d="M108.703 29.3466C109.308 28.2945 110.186 27.4279 111.243 26.8397C112.386 26.2181 113.67 25.9076 114.968 25.939C116.267 25.9703 117.534 26.3424 118.646 27.0184C119.783 27.739 120.651 28.8171 121.118 30.0854H118.421C118.106 29.4027 117.59 28.8345 116.943 28.4585C116.273 28.0925 115.519 27.9086 114.757 27.9251C113.911 27.9086 113.075 28.119 112.336 28.5345C111.623 28.9478 111.045 29.5607 110.671 30.2988C110.276 31.1349 110.071 32.0492 110.071 32.9751C110.071 33.901 110.276 34.8153 110.671 35.6514C111.047 36.3908 111.624 37.0067 112.336 37.4263C113.073 37.8498 113.909 38.0654 114.757 38.0504C115.519 38.0669 116.273 37.883 116.943 37.517C117.59 37.1413 118.107 36.573 118.421 35.8901H121.118C120.653 37.1557 119.783 38.2298 118.646 38.9438C117.477 39.6654 116.128 40.0355 114.757 40.0106C113.524 40.0241 112.309 39.7129 111.233 39.1078C110.18 38.5174 109.306 37.6511 108.703 36.6009C108.09 35.491 107.768 34.2422 107.768 32.9724C107.768 31.7026 108.09 30.4538 108.703 29.344V29.3466Z" fill="black"/>
<path d="M125.666 39.3692C124.843 38.9061 124.165 38.2189 123.712 37.3863C123.225 36.4766 122.98 35.4553 123.002 34.422C122.983 33.3901 123.234 32.3713 123.731 31.4683C124.194 30.632 124.883 29.945 125.717 29.4867C126.587 29.0305 127.553 28.7922 128.533 28.7922C129.514 28.7922 130.48 29.0305 131.349 29.4867C132.184 29.945 132.873 30.632 133.336 31.4683C133.833 32.3712 134.084 33.39 134.065 34.422C134.084 35.4565 133.826 36.4771 133.316 37.3756C132.835 38.2186 132.13 38.9092 131.279 39.3692C130.405 39.8411 129.426 40.0828 128.434 40.072C127.466 40.0838 126.512 39.8416 125.666 39.3692ZM130.07 37.693C130.589 37.4022 131.015 36.9695 131.3 36.4449C131.631 35.824 131.794 35.1263 131.773 34.422C131.773 33.6299 131.622 32.9591 131.32 32.4097C131.046 31.8895 130.629 31.4595 130.119 31.1709C129.625 30.8949 129.069 30.7516 128.504 30.7548C127.943 30.7506 127.39 30.894 126.9 31.1709C126.397 31.4592 125.99 31.89 125.728 32.4097C125.422 33.0347 125.274 33.7256 125.295 34.422C125.295 35.5999 125.593 36.5084 126.19 37.1476C126.476 37.4603 126.824 37.708 127.213 37.874C127.601 38.0401 128.02 38.1207 128.442 38.1104C129.011 38.113 129.571 37.9694 130.07 37.693Z" fill="black"/>
<path d="M144.067 29.3346C144.744 29.6898 145.298 30.2425 145.657 30.9202C146.036 31.6207 146.227 32.4653 146.228 33.4538V39.8973H144.002V33.7885C144.002 32.8106 143.76 32.0603 143.274 31.5376C142.788 31.0149 142.126 30.7539 141.287 30.7548C140.447 30.7548 139.781 31.0157 139.289 31.5376C138.796 32.0594 138.549 32.8097 138.547 33.7885V39.8946H136.295V28.9706H138.547V30.2201C138.926 29.7616 139.409 29.4013 139.955 29.1693C140.529 28.9168 141.149 28.7882 141.776 28.7919C142.572 28.7811 143.359 28.9675 144.067 29.3346Z" fill="black"/>
<path d="M156.846 29.3347C157.523 29.6891 158.077 30.242 158.436 30.9202C158.817 31.6207 159.007 32.4653 159.007 33.4538V39.8973H156.781V33.7885C156.781 32.8106 156.539 32.0603 156.053 31.5376C155.567 31.0149 154.905 30.754 154.066 30.7548C153.225 30.7548 152.558 31.0158 152.067 31.5376C151.576 32.0594 151.33 32.8098 151.328 33.7885V39.8946H149.077V28.9706H151.328V30.2201C151.708 29.7619 152.191 29.4016 152.736 29.1693C153.311 28.9169 153.931 28.7883 154.557 28.7919C155.353 28.7813 156.139 28.9677 156.846 29.3347Z" fill="black"/>
<path d="M171.723 35.2754H163.433C163.499 36.1475 163.821 36.8476 164.399 37.3757C164.978 37.904 165.736 38.1881 166.518 38.1691C167.726 38.1691 168.579 37.6601 169.078 36.6422H171.499C171.181 37.6347 170.557 38.4992 169.718 39.1105C168.859 39.7515 167.792 40.072 166.518 40.072C165.545 40.0872 164.586 39.8449 163.736 39.3692C162.92 38.9049 162.251 38.2174 161.807 37.3863C161.326 36.4745 161.085 35.454 161.107 34.422C161.085 33.3927 161.319 32.3743 161.787 31.4589C162.218 30.6278 162.882 29.9421 163.697 29.4867C164.562 29.0122 165.536 28.7727 166.522 28.7919C167.478 28.7749 168.422 29.0079 169.262 29.468C170.051 29.9067 170.699 30.5626 171.13 31.3589C171.585 32.22 171.813 33.1842 171.792 34.1593C171.799 34.5326 171.776 34.9058 171.723 35.2754ZM169.458 33.4512C169.445 32.6182 169.15 31.9514 168.572 31.4509C167.974 30.9415 167.21 30.6731 166.426 30.6975C165.694 30.6827 164.984 30.9487 164.44 31.4416C163.889 31.9377 163.561 32.6084 163.456 33.4538L169.458 33.4512Z" fill="black"/>
<path d="M173.938 31.4589C174.364 30.6337 175.017 29.9492 175.819 29.4867C176.66 29.0133 177.611 28.7735 178.575 28.7919C179.887 28.7919 180.974 29.1057 181.835 29.7334C182.695 30.361 183.277 31.2567 183.58 32.4204H181.158C180.983 31.9077 180.652 31.4636 180.212 31.1509C179.779 30.8468 179.235 30.6948 178.578 30.6948C177.66 30.6948 176.929 31.022 176.383 31.6763C175.837 32.3306 175.565 33.2458 175.566 34.4219C175.566 35.5999 175.838 36.5187 176.383 37.1783C176.928 37.8379 177.659 38.1682 178.578 38.1691C179.878 38.1691 180.738 37.5943 181.158 36.4449H183.58C183.301 37.5018 182.677 38.4335 181.808 39.0905C180.941 39.7448 179.864 40.072 178.578 40.072C177.613 40.0903 176.661 39.8477 175.821 39.3692C175.021 38.9004 174.369 38.2129 173.94 37.3863C173.493 36.4632 173.261 35.4496 173.261 34.4226C173.261 33.3956 173.493 32.3821 173.94 31.4589H173.938Z" fill="black"/>
<path d="M188.441 30.8149V36.8609C188.441 37.2703 188.535 37.565 188.726 37.7424C188.917 37.9197 189.241 38.0091 189.701 38.0091H191.08V39.8933H189.307C188.296 39.8933 187.521 39.6551 186.983 39.1786C186.445 38.7021 186.176 37.9291 186.176 36.8596V30.8149H184.897V28.9706H186.176V26.2543H188.441V28.9706H191.08V30.8149H188.441Z" fill="black"/>
<path d="M26.6175 32.0576V32.7697C26.6175 35.0566 25.9439 37.2922 24.6819 39.1936C23.4199 41.0951 21.6262 42.5772 19.5277 43.4523C17.4291 44.3275 15.1199 44.5564 12.892 44.1103C10.6642 43.6641 8.61777 42.5629 7.01158 40.9458C5.4054 39.3287 4.31157 37.2685 3.86843 35.0255C3.42528 32.7825 3.65272 30.4577 4.52198 28.3449C5.39124 26.232 6.86328 24.4262 8.75196 23.1556C10.6406 21.8851 12.8611 21.207 15.1326 21.207H22.4174V17.5359H15.1326C12.1399 17.5356 9.21427 18.4288 6.72577 20.1026C4.23728 21.7763 2.29767 24.1554 1.15221 26.9391C0.00676376 29.7227 -0.293074 32.7857 0.290618 35.7409C0.874311 38.6961 2.31532 41.4106 4.43141 43.5412C6.5475 45.6719 9.24362 47.1229 12.1788 47.7108C15.114 48.2987 18.1565 47.9971 20.9214 46.8441C23.6864 45.6911 26.0497 43.7386 27.7124 41.2333C29.375 38.7281 30.2625 35.7828 30.2625 32.7697V32.0576H26.6175Z" fill="#BC2228"/>
<path d="M30.2625 26.793V21.207V17.5359H26.6174H24.0002V21.207H26.6174V26.793H24.0002V30.4641H26.6174H30.2625H33.0453V26.793H30.2625Z" fill="#BC2228"/>
<path d="M52.4455 4.45961C50.3295 2.32945 47.6337 0.878818 44.6989 0.291129C41.7641 -0.29656 38.7221 0.00509394 35.9575 1.15795C33.193 2.3108 30.8301 4.26308 29.1676 6.76791C27.5051 9.27275 26.6176 12.2177 26.6175 15.2303V15.9424H30.2626V15.2303C30.2626 12.9434 30.9361 10.7078 32.1981 8.80635C33.4601 6.90486 35.2538 5.42283 37.3523 4.54768C39.4509 3.67252 41.7601 3.44354 43.988 3.88969C46.2158 4.33584 48.2622 5.43709 49.8684 7.05417C51.4746 8.67125 52.5684 10.7315 53.0116 12.9745C53.4547 15.2174 53.2273 17.5423 52.358 19.6551C51.4888 21.768 50.0167 23.5738 48.128 24.8443C46.2394 26.1149 44.0189 26.793 41.7474 26.793H34.6281V30.4628H41.7474C44.7397 30.4627 47.6648 29.5692 50.1527 27.8954C52.6407 26.2216 54.5798 23.8427 55.7249 21.0594C56.87 18.2761 57.1696 15.2135 56.5859 12.2588C56.0022 9.30403 54.5613 6.58992 52.4455 4.45961Z" fill="#BC2228"/>
</svg>